<svg xmlns="http://www.w3.org/2000/svg" width="20" height="20" fill="none" class="bi" viewBox="0 0 20 20">
  <path fill="#fff" d="M0 0h20v20H0z"/>
  <path stroke="#000" stroke-linecap="round" stroke-linejoin="round" d="M4 10a6 6 0 0011.197 3M2 11.5l2-2 2 2"/>
  <path fill="#000" d="M16.447 10a.5.5 0 01-1 0h1zM5.183 7.25a.5.5 0 11-.866-.5l.866.5zM15.447 10a5.5 5.5 0 00-5.5-5.5v-1a6.5 6.5 0 016.5 6.5h-1zm-5.5-5.5a5.498 5.498 0 00-4.764 2.75l-.866-.5a6.498 6.498 0 015.63-3.25v1z"/>
  <path stroke="#000" stroke-linecap="round" stroke-linejoin="round" d="M14 8.5l2 2 2-2"/>
</svg>
