<svg xmlns="http://www.w3.org/2000/svg" width="20" height="20" fill="none" class="bi" viewBox="0 0 20 20">
  <path fill="#fff" d="M0 0h20v20H0z"/>
  <path stroke="#000" stroke-linecap="round" stroke-linejoin="round" d="M12.5 13.5v.5l-.384-.32h0l-.004.005-.019.021c-.017.02-.042.05-.077.087a10.72 10.72 0 01-1.441 1.307c-.73.547-1.632 1.067-2.608 1.288.327-.67.4-1.239.342-1.7a2.03 2.03 0 00-.24-.746 1.622 1.622 0 00-.203-.283l-.007-.007-.003-.003-.001-.001h0c-.001-.001-.001-.002-.355.352v-.5a5 5 0 010-10h5a5 5 0 010 10z"/>
</svg>
