<svg xmlns="http://www.w3.org/2000/svg" width="20" height="20" fill="none" class="bi" viewBox="0 0 20 20">
  <path fill="#fff" d="M0 0h20v20H0z"/>
  <path stroke="#000" stroke-linejoin="round" d="M6 3.5h8.006l.044.003a1.958 1.958 0 01.726.195c.191.095.367.23.495.423.127.19.229.466.229.879v10.006l-.003.044a1.959 1.959 0 01-.195.726c-.095.191-.23.367-.423.495-.19.127-.466.229-.879.229H6.004h0-.002 0-.008l-.044-.003a1.96 1.96 0 01-.726-.195 1.256 1.256 0 01-.495-.423c-.127-.19-.229-.466-.229-.879V5.004v0-.002 0-.008l.003-.044a1.959 1.959 0 01.195-.726c.095-.191.23-.367.423-.495.19-.127.466-.229.879-.229zM4.337 5H4h.337zM16 15h-.337H16zM13.998 3.5h0z"/>
</svg>
