<svg xmlns="http://www.w3.org/2000/svg" width="20" height="20" fill="none" class="bi" viewBox="0 0 20 20">
  <path fill="#fff" d="M0 0h20v20H0z"/>
  <path stroke="#000" stroke-linejoin="round" d="M5 3.5h8.006l.044.003a1.958 1.958 0 01.726.195c.191.095.367.23.495.423.127.19.229.466.229.879v10.006l-.003.044a1.959 1.959 0 01-.195.726c-.095.191-.23.367-.423.495-.19.127-.466.229-.879.229H5.004h0-.002 0-.008l-.044-.003a1.96 1.96 0 01-.726-.195 1.256 1.256 0 01-.495-.423c-.127-.19-.229-.466-.229-.879V5.004v0-.002 0-.008l.003-.044a1.959 1.959 0 01.195-.726c.095-.191.23-.367.423-.495.19-.127.466-.229.879-.229zM3.337 5H3h.337zM15 15h-.337H15zM12.998 3.5h0z"/>
  <path fill="#000" fill-rule="evenodd" d="M17 6.5c0-1.333-.667-2-2-2v1c.781 0 1 .219 1 1v7c0 .781-.219 1-1 1v1c1.333 0 2-.667 2-2v-7z" clip-rule="evenodd"/>
</svg>
