<svg xmlns="http://www.w3.org/2000/svg" width="20" height="20" fill="none" class="bi" viewBox="0 0 20 20">
  <path fill="#fff" d="M0 0h20v20H0z"/>
  <path fill="#000" fill-rule="evenodd" d="M13 4H6c-1.333 0-2 .667-2 2v9c0 1.333.667 2 2 2h7c1.333 0 2-.667 2-2V6c0-1.333-.667-2-2-2zM5 6c0-.781.219-1 1-1h7c.781 0 1 .219 1 1v9c0 .781-.219 1-1 1H6c-.781 0-1-.219-1-1V6z" clip-rule="evenodd"/>
  <path fill="#000" fill-rule="evenodd" d="M8 2c-1.333 0-2 .667-2 2h1c0-.781.219-1 1-1h7c.781 0 1 .219 1 1v9c0 .781-.219 1-1 1v1c1.333 0 2-.667 2-2V4c0-1.333-.667-2-2-2H8z" clip-rule="evenodd"/>
</svg>
