<svg xmlns="http://www.w3.org/2000/svg" width="20" height="20" fill="none" class="bi" viewBox="0 0 20 20">
  <path fill="#fff" d="M0 0h20v20H0z"/>
  <path stroke="#000" stroke-linejoin="round" d="M14.34 12.486l1.317 1.757-1.414 1.414-1.757-1.318c-.365.21-.76.375-1.176.487L11 17H9l-.31-2.174a4.969 4.969 0 01-1.176-.487l-1.757 1.318-1.414-1.414 1.318-1.757a4.968 4.968 0 01-.487-1.176L3 11V9l2.173-.31a4.97 4.97 0 01.488-1.176L4.343 5.757l1.414-1.414 1.757 1.318a4.97 4.97 0 011.176-.487L9 3h2l.31 2.173c.416.113.81.278 1.176.488l1.757-1.318 1.414 1.414-1.318 1.757c.21.365.375.76.487 1.176L17 9v2l-2.174.31c-.112.416-.277.81-.487 1.176v0z" clip-rule="evenodd"/>
  <path stroke="#000" d="M10 12a2 2 0 100-4 2 2 0 000 4z" clip-rule="evenodd"/>
</svg>
