<svg xmlns="http://www.w3.org/2000/svg" width="20" height="20" fill="none" class="bi" viewBox="0 0 20 20">
  <path fill="#fff" d="M0 0h20v20H0z"/>
  <path stroke="#000" stroke-linejoin="round" d="M13.107 2.5L17.5 6.893v6.214L13.107 17.5H6.893L2.5 13.107V6.893L6.893 2.5h6.214z" clip-rule="evenodd"/>
  <path fill="#000" d="M12.646 13.354l-.353.353a.5.5 0 00.707 0l-.354-.353zM10 10.707l.354-.353a.5.5 0 00-.708 0l.354.353zm3.354 1.94l.353.353a.5.5 0 000-.707l-.354.354zM10.707 10l-.354-.354a.5.5 0 000 .708l.354-.354zm2.646-2.646l.354.353a.5.5 0 000-.707l-.354.354zm-.707-.708L13 6.293a.5.5 0 00-.707 0l.353.353zM10 9.293l-.354.353a.5.5 0 00.707 0L10 9.293zM7.354 6.646l.353-.353a.5.5 0 00-.707 0l.354.353zm-.708.708L6.293 7a.5.5 0 000 .707l.353-.353zM9.293 10l.353.354a.5.5 0 000-.708L9.293 10zm-2.647 2.646l-.353-.353a.5.5 0 000 .707l.353-.354zm.708.708L7 13.707a.5.5 0 00.707 0l-.353-.353zM13 13l-2.646-2.646-.708.707 2.647 2.646L13 13zm0-.707l-.707.707.707.707.707-.707-.707-.707zm-2.646-1.94L13 13l.707-.707-2.646-2.647-.707.708zm.707 0l2.646-2.646L13 7l-2.646 2.646.707.708zM13.707 7L13 6.293 12.293 7l.707.707.707-.707zm-1.414-.707L9.646 8.939l.707.707L13 7l-.707-.707zM7 7l2.646 2.646.707-.707-2.646-2.646L7 7zm0 .707L7.707 7 7 6.293 6.293 7 7 7.707zm2.646 1.94L7 7l-.707.707 2.646 2.647.707-.708zm-.707 0l-2.646 2.646L7 13l2.646-2.646-.707-.708zM6.293 13l.707.707.707-.707L7 12.293 6.293 13zm1.414.707l2.647-2.646-.708-.707L7 13l.707.707z"/>
</svg>
