<svg xmlns="http://www.w3.org/2000/svg" width="20" height="20" fill="none" class="bi" viewBox="0 0 20 20">
  <path fill="#fff" d="M0 0h20v20H0z"/>
  <mask id="a" fill="#fff">
    <path fill-rule="evenodd" d="M13 10a3 3 0 100-6 3 3 0 000 6zm-4 6s-1 0-1-1 1-4 5-4 5 3 5 4-1 1-1 1H9zm-2-1c0-1.355.68-2.75 1.936-3.72A6.325 6.325 0 007 11c-4 0-5 3-5 4 0 .667.333 1 1 1h4.216A2.238 2.238 0 017 15zm2-7.5a2.5 2.5 0 11-5 0 2.5 2.5 0 015 0z" clip-rule="evenodd"/>
  </mask>
  <path fill="#000" d="M8.936 11.28l.611.791 1.507-1.163-1.813-.58-.305.952zM7.216 16v1h1.612l-.716-1.444-.896.444zM15 7a2 2 0 01-2 2v2a4 4 0 004-4h-2zm-2-2a2 2 0 012 2h2a4 4 0 00-4-4v2zm-2 2a2 2 0 012-2V3a4 4 0 00-4 4h2zm2 2a2 2 0 01-2-2H9a4 4 0 004 4V9zm-6 6c0 .425.11.81.324 1.133.211.316.485.515.729.636a2.229 2.229 0 00.928.23l.01.001H9v-1l.001-1h.022a.33.33 0 01.005 0l-.02-.002a.242.242 0 01-.06-.017c-.007-.004.017.007.04.042.028.042.012.052.012-.023H7zm6-5c-2.283 0-3.813.87-4.76 1.974C7.337 13.03 7 14.261 7 15h2c0-.26.164-1.03.76-1.724C10.312 12.629 11.282 12 13 12v-2zm6 5c0-.74-.336-1.97-1.24-3.026C16.812 10.871 15.282 10 13 10v2c1.717 0 2.687.63 3.24 1.276.596.694.76 1.463.76 1.724h2zm-2 1l.001 1h.018a1.435 1.435 0 00.095-.005 2.226 2.226 0 00.833-.226 1.87 1.87 0 00.729-.636c.215-.323.324-.708.324-1.133h-2c0 .075-.016.065.012.023.023-.035.047-.046.04-.042a.243.243 0 01-.06.017l-.02.003h.015l.006-.001h.006L17 16zm-8 1h8v-2H9v2zm-.675-6.511C6.842 11.633 6 13.31 6 15h2c0-1.022.516-2.133 1.547-2.929L8.325 10.49zM7 12c.651 0 1.189.09 1.631.232l.61-1.904A7.323 7.323 0 007 10v2zm-4 3c0-.26.164-1.03.76-1.724C4.312 12.629 5.282 12 7 12v-2c-2.283 0-3.813.87-4.76 1.974C1.337 13.03 1 14.261 1 15h2zm0 0a.67.67 0 01-.093-.006.109.109 0 01-.028-.005l.026.013a.258.258 0 01.076.068.248.248 0 01.03.051s-.003-.008-.005-.028A.668.668 0 013 15H1c0 .488.123 1.037.543 1.457.42.42.97.543 1.457.543v-2zm4.216 0H3v2h4.216v-2zM6 15c0 .512.102 1.004.32 1.444l1.792-.888A1.244 1.244 0 018 15H6zm.5-4A3.5 3.5 0 0010 7.5H8A1.5 1.5 0 016.5 9v2zM3 7.5A3.5 3.5 0 006.5 11V9A1.5 1.5 0 015 7.5H3zM6.5 4A3.5 3.5 0 003 7.5h2A1.5 1.5 0 016.5 6V4zM10 7.5A3.5 3.5 0 006.5 4v2A1.5 1.5 0 018 7.5h2z" mask="url(#a)"/>
</svg>
