<svg xmlns="http://www.w3.org/2000/svg" width="20" height="20" fill="none" class="bi" viewBox="0 0 20 20">
  <path fill="#fff" d="M0 0h20v20H0z"/>
  <mask id="a" fill="#fff">
    <path fill-rule="evenodd" d="M13 7a3 3 0 11-6 0 3 3 0 016 0zm-9 8c0 1 1 1 1 1h10s1 0 1-1-1-4-6-4-6 3-6 4z" clip-rule="evenodd"/>
  </mask>
  <path fill="#000" d="M10 11a4 4 0 004-4h-2a2 2 0 01-2 2v2zM6 7a4 4 0 004 4V9a2 2 0 01-2-2H6zm4-4a4 4 0 00-4 4h2a2 2 0 012-2V3zm4 4a4 4 0 00-4-4v2a2 2 0 012 2h2zm-9 9l.001-1h.022a.33.33 0 01.005 0l-.02-.002a.242.242 0 01-.06-.017c-.007-.004.017.007.04.042.028.042.012.052.012-.023H3c0 .425.11.81.324 1.133.211.316.485.515.729.636a2.229 2.229 0 00.928.23l.01.001H5v-1zm10-1H5v2h10v-2zm0 0c0 .075-.016.065.012.023.023-.035.047-.046.04-.042a.243.243 0 01-.06.017l-.02.003h.015l.006-.001h.006L15 16l.001 1h.018a1.435 1.435 0 00.095-.005 2.226 2.226 0 00.833-.226 1.87 1.87 0 00.729-.636c.215-.323.324-.708.324-1.133h-2zm-5-3c2.29 0 3.516.68 4.168 1.332.682.682.832 1.425.832 1.668h2c0-.757-.35-2.014-1.418-3.082C14.484 10.82 12.711 10 10 10v2zm-5 3c0-.243.15-.986.832-1.668C6.484 12.68 7.711 12 10 12v-2c-2.71 0-4.484.82-5.582 1.918C3.349 12.986 3 14.243 3 15h2z" mask="url(#a)"/>
</svg>
