<svg xmlns="http://www.w3.org/2000/svg" width="20" height="20" fill="none" class="bi" viewBox="0 0 20 20">
  <path fill="#fff" d="M0 0h20v20H0z"/>
  <path stroke="#000" stroke-linejoin="round" d="M4.333 8.5h7.336l.038.002a1.62 1.62 0 01.637.187c.167.09.325.222.443.415.117.193.213.475.213.896v4.998h0v.01l-.002.045a2.199 2.199 0 01-.182.739 1.223 1.223 0 01-.384.491c-.165.12-.404.217-.765.217H4.338h0-.002 0-.005l-.038-.002a1.621 1.621 0 01-.637-.186 1.158 1.158 0 01-.443-.417C3.096 15.704 3 15.421 3 15v-4.987 0-.008 0-.002 0-.001s0 0 0 0v-.01l.003-.045a2.123 2.123 0 01.181-.738c.089-.195.213-.368.384-.492.165-.12.404-.217.765-.217z"/>
  <path stroke="#000" d="M17 8V5a3 3 0 10-6 0v3"/>
</svg>
