<svg xmlns="http://www.w3.org/2000/svg" width="20" height="20" fill="none" class="bi" viewBox="0 0 20 20">
  <path fill="#fff" d="M0 0h20v20H0z"/>
  <path fill="#000" fill-rule="evenodd" stroke="#000" stroke-linejoin="round" d="M8.858 13.858A1.991 1.991 0 0110 13.5c.425 0 .818.132 1.142.358L10 15l-1.142-1.142h0z" clip-rule="evenodd"/>
  <path stroke="#000" stroke-linecap="round" d="M7 12c.835-.628 1.874-1 3-1v0c1.126 0 2.165.372 3 1M4.865 9.865A7.968 7.968 0 0110 8v0c1.954 0 3.745.7 5.135 1.865M2.738 7.738A10.958 10.958 0 0110 5c2.783 0 5.325 1.034 7.262 2.738"/>
</svg>
